<svg width="51" height="19" viewBox="0 0 51 19" fill="none" xmlns="http://www.w3.org/2000/svg">
<g clip-path="url(#clip0)">
<path d="M11.2499 10.7507C10.8352 10.7507 10.4999 11.0867 10.4999 11.5006V14.5007C10.4999 14.9139 10.1639 15.2506 9.74985 15.2506H7.49988V4.00075C7.49988 3.36025 7.09188 2.78801 6.47843 2.57501L6.25637 2.50072H9.74985C10.1639 2.50072 10.4999 2.83744 10.4999 3.2508V5.50078C10.4999 5.91468 10.8352 6.25072 11.2499 6.25072C11.6646 6.25072 11.9998 5.91468 11.9998 5.50078V3.2508C11.9998 2.01032 10.9903 1.00082 9.74985 1.00082H1.68748C1.65892 1.00082 1.63502 1.0136 1.60728 1.0173C1.57117 1.01428 1.5367 1.00082 1.50003 1.00082C0.672768 1.00082 0 1.67345 0 2.50072V16.0006C0 16.6411 0.408 17.2133 1.02144 17.4263L5.53499 18.9309C5.68797 18.9781 5.84013 19.0006 5.99998 19.0006C6.82724 19.0006 7.49988 18.3279 7.49988 17.5006V16.7507H9.74985C10.9903 16.7507 11.9998 15.7412 11.9998 14.5007V11.5006C11.9998 11.0867 11.6646 10.7507 11.2499 10.7507Z" fill="white"/>
<path d="M17.7801 7.96988L14.7801 4.96995C14.5657 4.75545 14.2431 4.6909 13.9627 4.80708C13.6829 4.9234 13.4999 5.19709 13.4999 5.50017V7.75015H10.5C10.0859 7.75015 9.74988 8.08606 9.74988 8.5001C9.74988 8.91414 10.0859 9.25005 10.5 9.25005H13.4999V11.5C13.4999 11.8031 13.6829 12.0768 13.9627 12.1931C14.2431 12.3093 14.5657 12.2448 14.7801 12.0304L17.7801 9.03032C18.0733 8.73713 18.0733 8.26307 17.7801 7.96988Z" fill="white"/>
</g>
<path d="M27.6719 9.92969C26.3854 9.5599 25.4479 9.10677 24.8594 8.57031C24.276 8.02865 23.9844 7.36198 23.9844 6.57031C23.9844 5.67448 24.3411 4.9349 25.0547 4.35156C25.7734 3.76302 26.7057 3.46875 27.8516 3.46875C28.6328 3.46875 29.3281 3.61979 29.9375 3.92188C30.5521 4.22396 31.026 4.64062 31.3594 5.17188C31.6979 5.70312 31.8672 6.28385 31.8672 6.91406H30.3594C30.3594 6.22656 30.1406 5.6875 29.7031 5.29688C29.2656 4.90104 28.6484 4.70312 27.8516 4.70312C27.112 4.70312 26.5339 4.86719 26.1172 5.19531C25.7057 5.51823 25.5 5.96875 25.5 6.54688C25.5 7.01042 25.6953 7.40365 26.0859 7.72656C26.4818 8.04427 27.151 8.33594 28.0938 8.60156C29.0417 8.86719 29.7812 9.16146 30.3125 9.48438C30.849 9.80208 31.2448 10.1745 31.5 10.6016C31.7604 11.0286 31.8906 11.5312 31.8906 12.1094C31.8906 13.0312 31.5312 13.7708 30.8125 14.3281C30.0938 14.8802 29.1328 15.1562 27.9297 15.1562C27.1484 15.1562 26.4193 15.0078 25.7422 14.7109C25.0651 14.4089 24.5417 13.9974 24.1719 13.4766C23.8073 12.9557 23.625 12.3646 23.625 11.7031H25.1328C25.1328 12.3906 25.3854 12.9349 25.8906 13.3359C26.401 13.7318 27.0807 13.9297 27.9297 13.9297C28.7214 13.9297 29.3281 13.7682 29.75 13.4453C30.1719 13.1224 30.3828 12.6823 30.3828 12.125C30.3828 11.5677 30.1875 11.138 29.7969 10.8359C29.4062 10.5286 28.6979 10.2266 27.6719 9.92969ZM38.8125 15C38.7292 14.8333 38.6615 14.5365 38.6094 14.1094C37.9375 14.8073 37.1354 15.1562 36.2031 15.1562C35.3698 15.1562 34.6849 14.9219 34.1484 14.4531C33.6172 13.9792 33.3516 13.3802 33.3516 12.6562C33.3516 11.776 33.6849 11.0938 34.3516 10.6094C35.0234 10.1198 35.9661 9.875 37.1797 9.875H38.5859V9.21094C38.5859 8.70573 38.4349 8.30469 38.1328 8.00781C37.8307 7.70573 37.3854 7.55469 36.7969 7.55469C36.2812 7.55469 35.849 7.6849 35.5 7.94531C35.151 8.20573 34.9766 8.52083 34.9766 8.89062H33.5234C33.5234 8.46875 33.6719 8.0625 33.9688 7.67188C34.2708 7.27604 34.6771 6.96354 35.1875 6.73438C35.7031 6.50521 36.2682 6.39062 36.8828 6.39062C37.8568 6.39062 38.6198 6.63542 39.1719 7.125C39.724 7.60938 40.0104 8.27865 40.0312 9.13281V13.0234C40.0312 13.7995 40.1302 14.4167 40.3281 14.875V15H38.8125ZM36.4141 13.8984C36.8672 13.8984 37.2969 13.7812 37.7031 13.5469C38.1094 13.3125 38.4036 13.0078 38.5859 12.6328V10.8984H37.4531C35.6823 10.8984 34.7969 11.4167 34.7969 12.4531C34.7969 12.9062 34.9479 13.2604 35.25 13.5156C35.5521 13.7708 35.9401 13.8984 36.4141 13.8984ZM43.8672 15H42.4219V6.54688H43.8672V15ZM42.3047 4.30469C42.3047 4.07031 42.375 3.8724 42.5156 3.71094C42.6615 3.54948 42.875 3.46875 43.1562 3.46875C43.4375 3.46875 43.651 3.54948 43.7969 3.71094C43.9427 3.8724 44.0156 4.07031 44.0156 4.30469C44.0156 4.53906 43.9427 4.73438 43.7969 4.89062C43.651 5.04688 43.4375 5.125 43.1562 5.125C42.875 5.125 42.6615 5.04688 42.5156 4.89062C42.375 4.73438 42.3047 4.53906 42.3047 4.30469ZM50.2734 7.84375C50.0547 7.80729 49.8177 7.78906 49.5625 7.78906C48.6146 7.78906 47.9714 8.19271 47.6328 9V15H46.1875V6.54688H47.5938L47.6172 7.52344C48.0911 6.76823 48.763 6.39062 49.6328 6.39062C49.9141 6.39062 50.1276 6.42708 50.2734 6.5V7.84375Z" fill="white"/>
<defs>
<clipPath id="clip0">
<rect width="18" height="18" fill="white" transform="translate(0 1)"/>
</clipPath>
</defs>
</svg>
